<?xml version="1.0" encoding="UTF-8"?>
<svg width="69px" height="89px" viewBox="0 0 69 89" version="1.1" xmlns="http://www.w3.org/2000/svg" xmlns:xlink="http://www.w3.org/1999/xlink">
    <!-- Generator: Sketch 53.2 (72643) - https://sketchapp.com -->
    <title>LogoWhite</title>
    <desc>Created with Sketch.</desc>
    <g id="Page-1" stroke="none" stroke-width="1" fill="none" fill-rule="evenodd">
        <g id="playing-and-assets" transform="translate(-663.000000, -452.000000)" fill-rule="nonzero">
            <g id="LogoWhite" fill="#DADADA" transform="translate(663.000000, 452.000000)">
                <path d="M39.5658986,0.816298184 L39.5658986,5.23084694 C36.483024,4.54300806 35.697701,6.00625318 33.1752181,5.92659044 C29.684988,5.81636521 28.3644492,5.92659044 25.256705,5.92659044 C20.1072539,5.92659044 15.8058921,7.5157508 12.3524904,10.6941192 C8.89908874,13.8724876 7.17241379,17.8090352 7.17241379,22.50388 C7.17241379,25.8692112 8.19411494,28.9021186 10.2375479,31.602693 C12.2809808,34.3032675 16.5516916,36.8999347 23.0498084,39.3927727 C29.5479252,41.8856106 34.2886185,43.9629444 37.2720307,45.6248364 C40.2554428,47.2867284 42.7892616,49.6964356 44.8735632,52.8540304 C46.9578648,56.0116251 48,60.1039727 48,65.1311959 C48,71.8203111 45.5887853,77.470659 40.7662835,82.0824093 C35.9437818,86.6941595 30.0587831,89 23.1111111,89 C15.9999644,89 8.68458421,86.4656528 1.16475096,81.3968822 L1.16475096,73.4821613 C9.46108874,79.6727089 16.6538648,82.7679363 22.743295,82.7679363 C27.8110087,82.7679363 32.0919366,81.0956826 35.5862069,77.751125 C39.0804772,74.4065674 40.8275862,70.3038331 40.8275862,65.4427991 C40.8275862,61.7450895 39.744583,58.4109687 37.5785441,55.4403368 C35.4125051,52.4697049 31.0191902,49.6964643 24.3984674,47.1205317 C17.7777447,44.5445992 13.0472684,42.4672654 10.2068966,40.888468 C7.36652475,39.3096706 4.95531004,37.0557634 2.97318008,34.1266788 C0.991050115,31.1975942 0,27.4272334 0,22.8154832 C0,16.4171991 2.41121471,10.9641978 7.23371648,6.45631586 C12.0562182,1.94843389 17.61427,0 24.3984674,0 C31.0600589,0 32.4243629,0.282123597 39.5658986,0.816298184 Z" id="S"></path>
                <polygon id="F" points="69 0 69 6.10336438 31.6091794 6.10336438 31.6091794 41.3355721 65.3282337 41.3355721 65.3282337 48.0910402 31.6091794 48.0910402 31.6091794 86.6446831 25 89 25 0"></polygon>
            </g>
        </g>
    </g>
</svg>